# Blender 4.4.3
# www.blender.org
o body
v -0.350000 -0.350000 -0.500000
v -0.350000 -0.500000 -0.350000
v -0.500000 -0.350000 -0.350000
v -0.350000 -0.424902 -0.479961
v -0.424902 -0.350000 -0.479961
v -0.421732 -0.421732 -0.460495
v -0.424902 -0.479961 -0.350000
v -0.350000 -0.479961 -0.424902
v -0.421732 -0.460495 -0.421732
v -0.479961 -0.350000 -0.424902
v -0.479961 -0.424902 -0.350000
v -0.460495 -0.421732 -0.421732
v -0.350000 -0.500000 0.350000
v -0.350000 -0.350000 0.500000
v -0.500000 -0.350000 0.350000
v -0.350000 -0.479961 0.424902
v -0.424902 -0.479961 0.350000
v -0.421732 -0.460495 0.421732
v -0.424902 -0.350000 0.479961
v -0.350000 -0.424902 0.479961
v -0.421732 -0.421732 0.460495
v -0.479961 -0.424902 0.350000
v -0.479961 -0.350000 0.424902
v -0.460495 -0.421732 0.421732
v -0.350000 0.350000 -0.500000
v -0.500000 0.350000 -0.350000
v -0.350000 0.500000 -0.350000
v -0.424902 0.350000 -0.479961
v -0.350000 0.424902 -0.479961
v -0.421732 0.421732 -0.460495
v -0.479961 0.424902 -0.350000
v -0.479961 0.350000 -0.424902
v -0.460495 0.421732 -0.421732
v -0.350000 0.479961 -0.424902
v -0.424902 0.479961 -0.350000
v -0.421732 0.460495 -0.421732
v -0.350000 0.350000 0.500000
v -0.350000 0.500000 0.350000
v -0.500000 0.350000 0.350000
v -0.350000 0.424902 0.479961
v -0.424902 0.350000 0.479961
v -0.421732 0.421732 0.460495
v -0.424902 0.479961 0.350000
v -0.350000 0.479961 0.424902
v -0.421732 0.460495 0.421732
v -0.479961 0.350000 0.424902
v -0.479961 0.424902 0.350000
v -0.460495 0.421732 0.421732
v 0.350000 -0.350000 -0.500000
v 0.500000 -0.350000 -0.350000
v 0.350000 -0.500000 -0.350000
v 0.424902 -0.350000 -0.479961
v 0.350000 -0.424902 -0.479961
v 0.421732 -0.421732 -0.460495
v 0.479961 -0.424902 -0.350000
v 0.479961 -0.350000 -0.424902
v 0.460495 -0.421732 -0.421732
v 0.350000 -0.479961 -0.424902
v 0.424902 -0.479961 -0.350000
v 0.421732 -0.460495 -0.421732
v 0.350000 -0.350000 0.500000
v 0.350000 -0.500000 0.350000
v 0.500000 -0.350000 0.350000
v 0.350000 -0.424902 0.479961
v 0.424902 -0.350000 0.479961
v 0.421732 -0.421732 0.460495
v 0.424902 -0.479961 0.350000
v 0.350000 -0.479961 0.424902
v 0.421732 -0.460495 0.421732
v 0.479961 -0.350000 0.424902
v 0.479961 -0.424902 0.350000
v 0.460495 -0.421732 0.421732
v 0.350000 0.350000 -0.500000
v 0.350000 0.500000 -0.350000
v 0.500000 0.350000 -0.350000
v 0.350000 0.424902 -0.479961
v 0.424902 0.350000 -0.479961
v 0.421732 0.421732 -0.460495
v 0.424902 0.479961 -0.350000
v 0.350000 0.479961 -0.424902
v 0.421732 0.460495 -0.421732
v 0.479961 0.350000 -0.424902
v 0.479961 0.424902 -0.350000
v 0.460495 0.421732 -0.421732
v 0.350000 0.350000 0.500000
v 0.500000 0.350000 0.350000
v 0.350000 0.500000 0.350000
v 0.424902 0.350000 0.479961
v 0.350000 0.424902 0.479961
v 0.421732 0.421732 0.460495
v 0.479961 0.424902 0.350000
v 0.479961 0.350000 0.424902
v 0.460495 0.421732 0.421732
v 0.350000 0.479961 0.424902
v 0.424902 0.479961 0.350000
v 0.421732 0.460495 0.421732
vn -0.1280 -0.1280 -0.9835
vn -0.1280 -0.9835 -0.1280
vn -0.9835 -0.1280 -0.1280
vn -0.1216 -0.4916 -0.8623
vn -0.4916 -0.1216 -0.8623
vn -0.4488 -0.4488 -0.7727
vn -0.4916 -0.8623 -0.1216
vn -0.1216 -0.8623 -0.4916
vn -0.4488 -0.7727 -0.4488
vn -0.8623 -0.1216 -0.4916
vn -0.8623 -0.4916 -0.1216
vn -0.7727 -0.4488 -0.4488
vn -0.1280 -0.9835 0.1280
vn -0.1280 -0.1280 0.9835
vn -0.9835 -0.1280 0.1280
vn -0.1216 -0.8623 0.4916
vn -0.4916 -0.8623 0.1216
vn -0.4488 -0.7727 0.4488
vn -0.4916 -0.1216 0.8623
vn -0.1216 -0.4916 0.8623
vn -0.4488 -0.4488 0.7727
vn -0.8623 -0.4916 0.1216
vn -0.8623 -0.1216 0.4916
vn -0.7727 -0.4488 0.4488
vn -0.1280 0.1280 -0.9835
vn -0.9835 0.1280 -0.1280
vn -0.1280 0.9835 -0.1280
vn -0.4916 0.1216 -0.8623
vn -0.1216 0.4916 -0.8623
vn -0.4488 0.4488 -0.7727
vn -0.8623 0.4916 -0.1216
vn -0.8623 0.1216 -0.4916
vn -0.7727 0.4488 -0.4488
vn -0.1216 0.8623 -0.4916
vn -0.4916 0.8623 -0.1216
vn -0.4488 0.7727 -0.4488
vn -0.1280 0.1280 0.9835
vn -0.1280 0.9835 0.1280
vn -0.9835 0.1280 0.1280
vn -0.1216 0.4916 0.8623
vn -0.4916 0.1216 0.8623
vn -0.4488 0.4488 0.7727
vn -0.4916 0.8623 0.1216
vn -0.1216 0.8623 0.4916
vn -0.4488 0.7727 0.4488
vn -0.8623 0.1216 0.4916
vn -0.8623 0.4916 0.1216
vn -0.7727 0.4488 0.4488
vn 0.1280 -0.1280 -0.9835
vn 0.9835 -0.1280 -0.1280
vn 0.1280 -0.9835 -0.1280
vn 0.4916 -0.1216 -0.8623
vn 0.1216 -0.4916 -0.8623
vn 0.4488 -0.4488 -0.7727
vn 0.8623 -0.4916 -0.1216
vn 0.8623 -0.1216 -0.4916
vn 0.7727 -0.4488 -0.4488
vn 0.1216 -0.8623 -0.4916
vn 0.4916 -0.8623 -0.1216
vn 0.4488 -0.7727 -0.4488
vn 0.1280 -0.1280 0.9835
vn 0.1280 -0.9835 0.1280
vn 0.9835 -0.1280 0.1280
vn 0.1216 -0.4916 0.8623
vn 0.4916 -0.1216 0.8623
vn 0.4488 -0.4488 0.7727
vn 0.4916 -0.8623 0.1216
vn 0.1216 -0.8623 0.4916
vn 0.4488 -0.7727 0.4488
vn 0.8623 -0.1216 0.4916
vn 0.8623 -0.4916 0.1216
vn 0.7727 -0.4488 0.4488
vn 0.1280 0.1280 -0.9835
vn 0.1280 0.9835 -0.1280
vn 0.9835 0.1280 -0.1280
vn 0.1216 0.4916 -0.8623
vn 0.4916 0.1216 -0.8623
vn 0.4488 0.4488 -0.7727
vn 0.4916 0.8623 -0.1216
vn 0.1216 0.8623 -0.4916
vn 0.4488 0.7727 -0.4488
vn 0.8623 0.1216 -0.4916
vn 0.8623 0.4916 -0.1216
vn 0.7727 0.4488 -0.4488
vn 0.1280 0.1280 0.9835
vn 0.9835 0.1280 0.1280
vn 0.1280 0.9835 0.1280
vn 0.4916 0.1216 0.8623
vn 0.1216 0.4916 0.8623
vn 0.4488 0.4488 0.7727
vn 0.8623 0.4916 0.1216
vn 0.8623 0.1216 0.4916
vn 0.7727 0.4488 0.4488
vn 0.1216 0.8623 0.4916
vn 0.4916 0.8623 0.1216
vn 0.4488 0.7727 0.4488
s 1
f 62//62 2//2 51//51
f 86//86 50//50 75//75
f 37//37 61//61 85//85
f 15//15 26//26 3//3
f 38//38 74//74 27//27
f 4//4 5//5 1//1
f 4//4 9//9 6//6
f 7//7 8//8 2//2
f 11//11 9//9 7//7
f 10//10 11//11 3//3
f 5//5 12//12 10//10
f 6//6 9//9 12//12
f 16//16 17//17 13//13
f 20//20 18//18 16//16
f 19//19 20//20 14//14
f 19//19 24//24 21//21
f 22//22 23//23 15//15
f 17//17 24//24 22//22
f 18//18 21//21 24//24
f 28//28 29//29 25//25
f 28//28 33//33 30//30
f 31//31 32//32 26//26
f 35//35 33//33 31//31
f 34//34 35//35 27//27
f 29//29 36//36 34//34
f 30//30 33//33 36//36
f 40//40 41//41 37//37
f 40//40 45//45 42//42
f 43//43 44//44 38//38
f 47//47 45//45 43//43
f 46//46 47//47 39//39
f 41//41 48//48 46//46
f 42//42 45//45 48//48
f 52//52 53//53 49//49
f 52//52 57//57 54//54
f 55//55 56//56 50//50
f 59//59 57//57 55//55
f 58//58 59//59 51//51
f 53//53 60//60 58//58
f 54//54 57//57 60//60
f 64//64 65//65 61//61
f 64//64 69//69 66//66
f 67//67 68//68 62//62
f 71//71 69//69 67//67
f 70//70 71//71 63//63
f 65//65 72//72 70//70
f 66//66 69//69 72//72
f 76//76 77//77 73//73
f 76//76 81//81 78//78
f 79//79 80//80 74//74
f 83//83 81//81 79//79
f 82//82 83//83 75//75
f 77//77 84//84 82//82
f 78//78 81//81 84//84
f 88//88 89//89 85//85
f 88//88 93//93 90//90
f 91//91 92//92 86//86
f 95//95 93//93 91//91
f 94//94 95//95 87//87
f 89//89 96//96 94//94
f 90//90 93//93 96//96
f 1//1 28//28 25//25
f 5//5 32//32 28//28
f 10//10 26//26 32//32
f 13//13 7//7 2//2
f 17//17 11//11 7//7
f 22//22 3//3 11//11
f 37//37 19//19 14//14
f 41//41 23//23 19//19
f 46//46 15//15 23//23
f 27//27 43//43 38//38
f 35//35 47//47 43//43
f 31//31 39//39 47//47
f 25//25 76//76 73//73
f 29//29 80//80 76//76
f 34//34 74//74 80//80
f 85//85 40//40 37//37
f 89//89 44//44 40//40
f 94//94 38//38 44//44
f 75//75 91//91 86//86
f 83//83 95//95 91//91
f 79//79 87//87 95//95
f 73//73 52//52 49//49
f 77//77 56//56 52//52
f 82//82 50//50 56//56
f 61//61 88//88 85//85
f 65//65 92//92 88//88
f 70//70 86//86 92//92
f 51//51 67//67 62//62
f 59//59 71//71 67//67
f 55//55 63//63 71//71
f 49//49 4//4 1//1
f 53//53 8//8 4//4
f 58//58 2//2 8//8
f 14//14 64//64 61//61
f 20//20 68//68 64//64
f 16//16 62//62 68//68
f 73//73 1//1 25//25
f 62//62 13//13 2//2
f 86//86 63//63 50//50
f 37//37 14//14 61//61
f 15//15 39//39 26//26
f 38//38 87//87 74//74
f 4//4 6//6 5//5
f 4//4 8//8 9//9
f 7//7 9//9 8//8
f 11//11 12//12 9//9
f 10//10 12//12 11//11
f 5//5 6//6 12//12
f 16//16 18//18 17//17
f 20//20 21//21 18//18
f 19//19 21//21 20//20
f 19//19 23//23 24//24
f 22//22 24//24 23//23
f 17//17 18//18 24//24
f 28//28 30//30 29//29
f 28//28 32//32 33//33
f 31//31 33//33 32//32
f 35//35 36//36 33//33
f 34//34 36//36 35//35
f 29//29 30//30 36//36
f 40//40 42//42 41//41
f 40//40 44//44 45//45
f 43//43 45//45 44//44
f 47//47 48//48 45//45
f 46//46 48//48 47//47
f 41//41 42//42 48//48
f 52//52 54//54 53//53
f 52//52 56//56 57//57
f 55//55 57//57 56//56
f 59//59 60//60 57//57
f 58//58 60//60 59//59
f 53//53 54//54 60//60
f 64//64 66//66 65//65
f 64//64 68//68 69//69
f 67//67 69//69 68//68
f 71//71 72//72 69//69
f 70//70 72//72 71//71
f 65//65 66//66 72//72
f 76//76 78//78 77//77
f 76//76 80//80 81//81
f 79//79 81//81 80//80
f 83//83 84//84 81//81
f 82//82 84//84 83//83
f 77//77 78//78 84//84
f 88//88 90//90 89//89
f 88//88 92//92 93//93
f 91//91 93//93 92//92
f 95//95 96//96 93//93
f 94//94 96//96 95//95
f 89//89 90//90 96//96
f 1//1 5//5 28//28
f 5//5 10//10 32//32
f 10//10 3//3 26//26
f 13//13 17//17 7//7
f 17//17 22//22 11//11
f 22//22 15//15 3//3
f 37//37 41//41 19//19
f 41//41 46//46 23//23
f 46//46 39//39 15//15
f 27//27 35//35 43//43
f 35//35 31//31 47//47
f 31//31 26//26 39//39
f 25//25 29//29 76//76
f 29//29 34//34 80//80
f 34//34 27//27 74//74
f 85//85 89//89 40//40
f 89//89 94//94 44//44
f 94//94 87//87 38//38
f 75//75 83//83 91//91
f 83//83 79//79 95//95
f 79//79 74//74 87//87
f 73//73 77//77 52//52
f 77//77 82//82 56//56
f 82//82 75//75 50//50
f 61//61 65//65 88//88
f 65//65 70//70 92//92
f 70//70 63//63 86//86
f 51//51 59//59 67//67
f 59//59 55//55 71//71
f 55//55 50//50 63//63
f 49//49 53//53 4//4
f 53//53 58//58 8//8
f 58//58 51//51 2//2
f 14//14 20//20 64//64
f 20//20 16//16 68//68
f 16//16 13//13 62//62
f 73//73 49//49 1//1
o dot
v 0.000000 -0.501000 0.000000
v 0.150000 -0.501000 0.000000
v 0.147118 -0.501000 0.029264
v 0.138582 -0.501000 0.057403
v 0.124720 -0.501000 0.083336
v 0.106066 -0.501000 0.106066
v 0.083336 -0.501000 0.124720
v 0.057403 -0.501000 0.138582
v 0.029264 -0.501000 0.147118
v -0.000000 -0.501000 0.150000
v -0.029264 -0.501000 0.147118
v -0.057403 -0.501000 0.138582
v -0.083336 -0.501000 0.124720
v -0.106066 -0.501000 0.106066
v -0.124720 -0.501000 0.083336
v -0.138582 -0.501000 0.057403
v -0.147118 -0.501000 0.029264
v -0.150000 -0.501000 -0.000000
v -0.147118 -0.501000 -0.029264
v -0.138582 -0.501000 -0.057403
v -0.124720 -0.501000 -0.083336
v -0.106066 -0.501000 -0.106066
v -0.083336 -0.501000 -0.124720
v -0.057403 -0.501000 -0.138582
v -0.029264 -0.501000 -0.147118
v 0.000000 -0.501000 -0.150000
v 0.029264 -0.501000 -0.147118
v 0.057403 -0.501000 -0.138582
v 0.083336 -0.501000 -0.124720
v 0.106066 -0.501000 -0.106066
v 0.124720 -0.501000 -0.083336
v 0.138582 -0.501000 -0.057403
v 0.147118 -0.501000 -0.029264
vn -0.0000 -1.0000 -0.0000
s 0
f 97//97 98//97 99//97
f 97//97 99//97 100//97
f 97//97 100//97 101//97
f 97//97 101//97 102//97
f 97//97 102//97 103//97
f 97//97 103//97 104//97
f 97//97 104//97 105//97
f 97//97 105//97 106//97
f 97//97 106//97 107//97
f 97//97 107//97 108//97
f 97//97 108//97 109//97
f 97//97 109//97 110//97
f 97//97 110//97 111//97
f 97//97 111//97 112//97
f 97//97 112//97 113//97
f 97//97 113//97 114//97
f 97//97 114//97 115//97
f 97//97 115//97 116//97
f 97//97 116//97 117//97
f 97//97 117//97 118//97
f 97//97 118//97 119//97
f 97//97 119//97 120//97
f 97//97 120//97 121//97
f 97//97 121//97 122//97
f 97//97 122//97 123//97
f 97//97 123//97 124//97
f 97//97 124//97 125//97
f 97//97 125//97 126//97
f 97//97 126//97 127//97
f 97//97 127//97 128//97
f 97//97 128//97 129//97
f 97//97 129//97 98//97
o arrow
v -0.298750 -0.501000 0.298750
v -0.000000 -0.501000 0.102500
v 0.298750 -0.501000 0.298750
v -0.297500 -0.501000 0.200000
v 0.297500 -0.501000 0.200000
v -0.295000 -0.501000 0.300000
v -0.300000 -0.501000 0.295000
v 0.295000 -0.501000 0.300000
v 0.300000 -0.501000 0.295000
v -0.300000 -0.501000 0.205000
v 0.300000 -0.501000 0.205000
v 0.290000 -0.501000 0.195000
v -0.290000 -0.501000 0.195000
vn -0.0000 -1.0000 -0.0000
s 0
f 136//98 131//98 138//98
f 135//98 130//98 136//98
f 136//98 139//98 133//98
f 133//98 142//98 131//98
f 131//98 141//98 134//98
f 134//98 140//98 138//98
f 138//98 132//98 137//98
f 137//98 135//98 136//98
f 136//98 133//98 131//98
f 131//98 134//98 138//98
f 138//98 137//98 136//98
