# Blender 4.4.3
# www.blender.org
o bomb
v 0.286545 0.177097 -0.208185
v 0.000000 0.396000 0.000000
v -0.109449 0.177097 -0.336853
v 0.286545 0.177097 0.208185
v -0.354192 0.177097 0.000000
v -0.109449 0.177097 0.336853
v 0.354192 -0.177097 -0.000000
v 0.109449 -0.177097 -0.336853
v 0.000000 -0.396000 -0.000000
v -0.286545 -0.177097 -0.208185
v -0.286545 -0.177097 0.208185
v 0.109449 -0.177097 0.336853
v 0.098302 0.011806 0.302543
v 0.054522 0.082645 0.302543
v 0.145094 0.089671 0.446546
v 0.133721 0.082645 0.276809
v -0.257359 0.011806 0.186981
v -0.270888 0.082645 0.145344
v -0.375385 0.088617 0.272734
v -0.257359 0.011807 -0.186981
v -0.221940 0.082646 -0.212715
v -0.410563 0.096921 -0.298293
v 0.098302 0.011807 -0.302543
v 0.133721 0.082646 -0.276809
v 0.139894 0.086459 -0.430563
v 0.318114 0.011807 0.000000
v 0.304584 0.082645 0.041637
v 0.456034 0.087096 0.000000
v 0.304584 0.082645 -0.041637
v 0.054522 0.082646 -0.302543
v -0.270888 0.082646 -0.145344
v -0.221940 0.082645 0.212715
v -0.304584 -0.082645 0.041637
v -0.304584 -0.082645 -0.041637
v -0.486247 -0.092867 -0.000000
v -0.054522 -0.082646 0.302543
v -0.133722 -0.082646 0.276809
v -0.153848 -0.095084 0.473490
v 0.270888 -0.082646 0.145344
v 0.221940 -0.082646 0.212715
v 0.383906 -0.090629 0.278925
v 0.221940 -0.082645 -0.212715
v 0.270888 -0.082645 -0.145344
v 0.381558 -0.090073 -0.277219
v -0.133722 -0.082645 -0.276809
v -0.054522 -0.082645 -0.302543
v -0.138648 -0.085689 -0.426712
v -0.098302 -0.011806 -0.302543
v -0.318114 -0.011807 -0.000000
v -0.098302 -0.011807 0.302543
v 0.257358 -0.011807 0.186981
v 0.257358 -0.011806 -0.186981
vn 0.1876 0.7947 -0.5774
vn 0.6071 0.7947 -0.0000
vn -0.4911 0.7947 -0.3568
vn -0.4911 0.7947 0.3568
vn 0.1876 0.7947 0.5774
vn 0.4911 -0.7947 -0.3568
vn -0.1876 -0.7947 -0.5774
vn -0.6071 -0.7947 -0.0000
vn -0.1876 -0.7947 0.5774
vn 0.4911 -0.7947 0.3568
vn -0.7420 -0.4586 0.4891
vn 0.8877 -0.4586 -0.0405
vn -0.0132 0.9991 -0.0405
vn -0.6980 -0.4572 -0.5511
vn 0.3362 -0.4655 -0.8187
vn 0.8906 -0.4542 0.0245
vn 0.2484 -0.4551 0.8551
vn 0.2484 -0.4551 -0.8551
vn -0.0294 0.9996 -0.0000
vn -0.7349 -0.4542 -0.5036
vn -0.0080 0.9997 0.0245
vn -0.6747 -0.4655 0.5727
vn 0.0568 0.9975 0.0413
vn 0.3085 -0.4573 0.8341
vn 0.0303 0.9993 -0.0220
vn 0.0562 -0.9984 -0.0000
vn 0.0198 -0.9979 -0.0611
vn -0.0380 -0.9989 -0.0276
vn -0.0359 -0.9990 0.0261
vn 0.0065 -0.9998 0.0201
vn -0.8913 0.4530 0.0201
vn 0.7329 0.4529 -0.5076
vn -0.2227 0.4620 0.8584
vn -0.2227 0.4620 -0.8584
vn 0.7508 0.4640 0.4700
vn -0.8837 0.4640 -0.0611
vn -0.3165 0.4597 0.8298
vn 0.6913 0.4597 -0.5574
vn -0.3144 0.4591 -0.8309
vn 0.6931 0.4591 0.5558
vn 0.9822 0.1876 -0.0000
vn 0.3035 0.1876 -0.9342
vn -0.7947 0.1876 -0.5774
vn -0.7946 0.1876 -0.5774
vn -0.7947 0.1876 0.5774
vn -0.7946 0.1876 0.5774
vn 0.3035 0.1876 0.9342
vn -0.3035 -0.1876 -0.9342
vn -0.3035 -0.1876 0.9342
vn 0.7947 -0.1876 -0.5774
vn 0.7946 -0.1876 -0.5774
vn 0.7946 -0.1876 0.5774
vn 0.7947 -0.1876 0.5774
vn 0.7947 -0.1876 0.5773
vn -0.9822 -0.1876 -0.0000
s 1
f 1//1 3//1 2//1
f 2//2 4//2 1//2
f 3//3 5//3 2//3
f 5//4 6//4 2//4
f 6//5 4//5 2//5
f 7//6 9//6 8//6
f 8//7 9//7 10//7
f 10//8 9//8 11//8
f 11//9 9//9 12//9
f 12//10 9//10 7//10
f 13//11 15//11 14//11
f 16//12 15//12 13//12
f 14//13 15//13 16//13
f 17//14 19//14 18//14
f 20//15 22//15 21//15
f 23//16 25//16 24//16
f 26//17 28//17 27//17
f 29//18 28//18 26//18
f 27//19 28//19 29//19
f 30//20 25//20 23//20
f 24//21 25//21 30//21
f 31//22 22//22 20//22
f 21//23 22//23 31//23
f 32//24 19//24 17//24
f 18//25 19//25 32//25
f 33//26 35//26 34//26
f 36//27 38//27 37//27
f 39//28 41//28 40//28
f 42//29 44//29 43//29
f 45//30 47//30 46//30
f 48//31 47//31 45//31
f 46//32 47//32 48//32
f 49//33 35//33 33//33
f 34//34 35//34 49//34
f 50//35 38//35 36//35
f 37//36 38//36 50//36
f 40//37 41//37 51//37
f 51//38 41//38 39//38
f 52//39 44//39 42//39
f 43//40 44//40 52//40
f 26//41 27//41 4//41
f 7//41 26//41 4//41
f 23//42 24//42 1//42
f 8//42 23//42 1//42
f 10//43 20//43 3//44
f 20//43 21//44 3//44
f 3//44 21//44 5//43
f 21//44 31//43 5//43
f 17//45 18//46 5//45
f 11//45 17//45 5//45
f 13//47 14//47 6//47
f 12//47 13//47 6//47
f 45//48 46//48 8//48
f 10//48 45//48 8//48
f 36//49 37//49 11//49
f 12//49 36//49 11//49
f 16//47 13//47 12//47
f 4//47 16//47 12//47
f 14//47 16//47 4//47
f 6//47 14//47 4//47
f 32//46 17//45 11//45
f 6//46 32//46 11//45
f 18//46 32//46 6//46
f 5//45 18//46 6//46
f 31//43 20//43 10//43
f 5//43 31//43 10//43
f 30//42 23//42 8//42
f 3//42 30//42 8//42
f 24//42 30//42 3//42
f 1//42 24//42 3//42
f 29//41 26//41 7//41
f 1//41 29//41 7//41
f 27//41 29//41 1//41
f 4//41 27//41 1//41
f 50//49 36//49 12//49
f 6//49 50//49 12//49
f 37//49 50//49 6//49
f 11//49 37//49 6//49
f 48//48 45//48 10//48
f 3//48 48//48 10//48
f 46//48 48//48 3//48
f 8//48 46//48 3//48
f 1//50 52//51 8//51
f 43//50 52//51 1//50
f 52//51 42//51 8//51
f 7//50 43//50 1//50
f 8//51 42//51 7//50
f 42//51 43//50 7//50
f 12//52 40//53 4//53
f 39//53 40//53 12//52
f 40//53 51//54 4//53
f 7//53 39//53 12//52
f 4//53 51//54 7//53
f 51//54 39//53 7//53
f 5//55 49//55 11//55
f 34//55 49//55 5//55
f 49//55 33//55 11//55
f 10//55 34//55 5//55
f 11//55 33//55 10//55
f 33//55 34//55 10//55
